<svg width="73" height="30" viewBox="0 0 73 30" fill="none" xmlns="http://www.w3.org/2000/svg">
<g id="MainIcon3">
<rect width="73" height="30" rx="15" fill="#F2E9DB"/>
<path id="Vector (Stroke)" d="M23.1941 7.22857L22.2353 8.1485C22.2353 8.1485 22 8.37143 22 8.6C22 8.82857 22.2353 9.05878 22.2353 9.05878L27.8824 14.5641C27.8824 14.5641 28.1176 14.7714 28.1176 15C28.1176 15.2286 27.8824 15.4359 27.8824 15.4359L22.2353 20.9413C22.2353 20.9413 22 21.1714 22 21.4C22 21.6286 22.2353 21.8516 22.2353 21.8516L23.194 22.7714C23.194 22.7714 23.4118 23 23.6471 23C23.8824 23 24.14 22.7714 24.14 22.7714L31.8824 15.2293C31.8824 15.2293 32 15.1143 32 15C32 14.8857 31.8824 14.7707 31.8824 14.7707L24.1399 7.22857C24.1399 7.22857 23.8824 7 23.6706 7C23.4588 7 23.1941 7.22857 23.1941 7.22857Z" fill="#6F450B"/>
<path id="Vector (Stroke)_2" d="M50.8059 22.7714L51.7647 21.8515C51.7647 21.8515 52 21.6286 52 21.4C52 21.1714 51.7647 20.9412 51.7647 20.9412L46.1176 15.4359C46.1176 15.4359 45.8824 15.2286 45.8824 15C45.8824 14.7714 46.1176 14.5641 46.1176 14.5641L51.7647 9.05869C51.7647 9.05869 52 8.82857 52 8.6C52 8.37143 51.7647 8.14841 51.7647 8.14841L50.806 7.22857C50.806 7.22857 50.5882 7 50.3529 7C50.1176 7 49.86 7.22857 49.86 7.22857L42.1176 14.7707C42.1176 14.7707 42 14.8857 42 15C42 15.1143 42.1176 15.2293 42.1176 15.2293L49.8601 22.7714C49.8601 22.7714 50.1176 23 50.3294 23C50.5412 23 50.8059 22.7714 50.8059 22.7714Z" fill="#6F450B"/>
<circle id="Ellipse 6" cx="37" cy="15" r="2" fill="#6F450B"/>
</g>
</svg>
