<svg width="21" height="21" viewBox="0 0 21 21" fill="none" xmlns="http://www.w3.org/2000/svg">
<g id="WriteIcon">
<path id="Vector" d="M20.0455 21L0.954545 21C0.426682 21 0 20.552 0 20C0 19.448 0.426682 19 0.954545 19L20.0455 19C20.5733 19 21 19.448 21 20C21 20.552 20.5733 21 20.0455 21Z" fill="#008AD9"/>
<path id="Vector_2" d="M16.6221 6.68086L18.5311 4.77177C18.892 4.41095 19.0905 3.93177 19.0905 3.42205C19.0905 2.91232 18.892 2.43218 18.5311 2.07232L17.0172 0.558409C16.2736 -0.186136 15.0614 -0.186136 14.3178 0.558409L12.4087 2.4675L16.6221 6.68086Z" fill="#008AD9"/>
<path id="Vector_3" d="M11.0588 3.81723L4.09735 10.7787C4.00571 10.8704 3.93412 10.9792 3.88544 11.0985L1.97635 15.8712C1.83507 16.2263 1.91716 16.6311 2.18825 16.9012C2.37057 17.0835 2.61494 17.1809 2.86312 17.1809C2.98244 17.1809 3.10271 17.1589 3.21725 17.1131L7.98998 15.204C8.11026 15.1563 8.21907 15.0837 8.31071 14.9921L15.2722 8.03059L11.0588 3.81723Z" fill="#008AD9"/>
</g>
</svg>
