<svg width="73" height="30" viewBox="0 0 73 30" fill="none" xmlns="http://www.w3.org/2000/svg">
<g id="logos2-02 1">
<g id="Vector">
<mask id="path-2-inside-1_1_83" fill="white">
<path d="M37.6376 7C38.0216 7 38.3736 6.9792 38.6968 6.9368L38.5984 7.0512C38.3024 7.0168 37.9824 7 37.6376 7Z"/>
</mask>
<path d="M38.6968 6.9368L40.2131 8.24101L38.4367 4.95379L38.6968 6.9368ZM38.5984 7.0512L38.3675 9.03783L40.1147 8.35541L38.5984 7.0512ZM37.6376 9C38.0925 9 38.5329 8.97544 38.957 8.91981L38.4367 4.95379C38.2143 4.98296 37.9507 5 37.6376 5V9ZM37.1805 5.63259L37.0821 5.74699L40.1147 8.35541L40.2131 8.24101L37.1805 5.63259ZM38.8293 5.06457C38.4444 5.01984 38.0462 5 37.6376 5V9C37.9186 9 38.1604 9.01375 38.3675 9.03783L38.8293 5.06457Z" fill="#383836" mask="url(#path-2-inside-1_1_83)"/>
</g>
<path id="Vector_2" d="M36.0592 6V7V8C36.196 8 36.3287 8.00201 36.4574 8.00598L32.519 12.5825C32.7016 10.5424 32.3817 8.63888 31.7357 7.02456C31.2746 5.8722 30.629 4.83258 29.8576 4H39.9051L38.4492 5.6914C37.8465 5.89061 37.0656 6 36.0592 6Z" stroke="#383836" stroke-width="2" stroke-miterlimit="1" stroke-linejoin="bevel"/>
<g id="Vector_3">
<mask id="path-5-inside-2_1_83" fill="white">
<path d="M41.6504 3.5048L41.6224 3.5368C41.6328 3.3648 41.6376 3.1864 41.6376 3C41.6376 3.1744 41.6416 3.3432 41.6504 3.5048Z"/>
</mask>
<path d="M41.6504 3.5048L43.1555 4.82182L43.6474 3.39605L41.6504 3.5048ZM41.6224 3.5368L39.626 3.41609L43.1275 4.85382L41.6224 3.5368ZM40.1453 2.18778L40.1173 2.21978L43.1275 4.85382L43.1555 4.82182L40.1453 2.18778ZM43.6188 3.65751C43.6319 3.43958 43.6376 3.22047 43.6376 3H39.6376C39.6376 3.15233 39.6337 3.29002 39.626 3.41609L43.6188 3.65751ZM39.6376 3C39.6376 3.20438 39.6423 3.40995 39.6534 3.61355L43.6474 3.39605C43.6409 3.27645 43.6376 3.14442 43.6376 3H39.6376Z" fill="#383836" mask="url(#path-5-inside-2_1_83)"/>
</g>
<g id="Vector_4">
<mask id="path-7-inside-3_1_83" fill="white">
<path d="M42.0848 3L41.796 3.336C41.7744 3.2272 41.756 3.1152 41.74 3H42.0848Z"/>
</mask>
<path d="M42.0848 3L43.6015 4.30366L42.0848 1V3ZM41.796 3.336L39.8343 3.72546L43.3127 4.63966L41.796 3.336ZM41.74 3V1L39.759 3.27514L41.74 3ZM40.5681 1.69634L40.2793 2.03234L43.3127 4.63966L43.6015 4.30366L40.5681 1.69634ZM43.7577 2.94654C43.7448 2.88174 43.7326 2.80845 43.721 2.72486L39.759 3.27514C39.7794 3.42195 39.8039 3.57266 39.8343 3.72546L43.7577 2.94654ZM41.74 5H42.0848V1H41.74V5Z" fill="#383836" mask="url(#path-7-inside-3_1_83)"/>
</g>
<path id="Vector_5" d="M48 26V25.6212C46.2341 25.9505 43.7097 26.0272 41.3195 25.4821C38.199 24.7704 35.0086 22.9091 34.289 18.855L48 26ZM48 26H27.1799L34.1638 17.885M48 26L34.1638 17.885M34.1638 17.885C34.1901 18.2081 34.2316 18.5316 34.289 18.8547L34.1638 17.885Z" stroke="#383836" stroke-width="2" stroke-miterlimit="1" stroke-linejoin="bevel"/>
<g id="Vector_6">
<mask id="path-10-inside-4_1_83" fill="white">
<path d="M39.0384 7.4592C39.5624 7.6664 40 7.948 40.3568 8.3104L24.9997 26.5V24.0896L39.0384 7.4592Z"/>
</mask>
<path d="M39.0384 7.4592L39.7738 5.59932L37.5101 6.16909L39.0384 7.4592ZM40.3568 8.3104L41.885 9.60061L41.782 6.90724L40.3568 8.3104ZM24.9997 26.5H22.9997L26.5279 27.7902L24.9997 26.5ZM24.9997 24.0896L23.4714 22.7995L22.9997 24.0896H24.9997ZM38.303 9.31907C38.5989 9.43608 38.7926 9.57234 38.9316 9.71356L41.782 6.90724C41.2074 6.32365 40.5259 5.89672 39.7738 5.59932L38.303 9.31907ZM38.8286 7.02018L23.4715 25.2098L26.5279 27.7902L41.885 9.60061L38.8286 7.02018ZM26.528 25.3797L40.5667 8.7493L37.5101 6.16909L23.4714 22.7995L26.528 25.3797ZM26.9997 26.5V24.0896H22.9997V26.5H26.9997Z" fill="#383836" mask="url(#path-10-inside-4_1_83)"/>
</g>
<g id="Vector_7">
<mask id="path-12-inside-5_1_83" fill="white">
<path d="M44.9276 2.99988L42.76 5.51839C42.4144 5.11839 42.1544 4.63119 41.972 4.05039L42.8762 2.99988H44.9276Z"/>
</mask>
<path d="M42.76 5.51839L41.2466 6.82594L44.2759 6.82306L42.76 5.51839ZM41.972 4.05039L40.4561 2.74571L40.0639 4.64963L41.972 4.05039ZM42.8762 2.99988V0.999878L41.3603 1.6952L42.8762 2.99988ZM44.9276 2.99988L46.4435 4.30455L44.9276 0.999878V2.99988ZM44.2734 4.21083C44.1344 4.04995 43.9946 3.81564 43.8801 3.45115L40.0639 4.64963C40.3142 5.44673 40.6944 6.18683 41.2466 6.82594L44.2734 4.21083ZM43.4879 5.35507L44.392 4.30456L41.3603 1.6952L40.4561 2.74571L43.4879 5.35507ZM43.4118 1.6952L41.2441 4.21371L44.2759 6.82306L46.4435 4.30455L43.4118 1.6952ZM42.8762 4.99988H44.9276V0.999878H42.8762V4.99988Z" fill="#383836" mask="url(#path-12-inside-5_1_83)"/>
</g>
<path id="Vector_8" d="M41.6551 6.55593C41.7932 6.72036 41.9426 6.868 42.1023 7.00017C42.0183 7.06964 41.9372 7.1434 41.8589 7.22165C41.7806 7.29997 41.7068 7.38123 41.6373 7.46529C41.5627 7.37522 41.4832 7.28839 41.3984 7.20495C41.3256 7.13293 41.2501 7.06475 41.1722 7.00026C41.3428 6.85939 41.4978 6.70409 41.6375 6.53482C41.6434 6.54188 41.6492 6.54891 41.6551 6.55593ZM41.6551 6.55593L42.4209 5.9128L41.6551 6.55593Z" stroke="#383836" stroke-width="2" stroke-miterlimit="1" stroke-linejoin="bevel"/>
</g>
</svg>
