<svg width="22" height="22" viewBox="0 0 22 22" fill="none" xmlns="http://www.w3.org/2000/svg">
<path id="Vector" d="M11.6478 1.42091L14.3468 7.14985L20.3818 8.07012C20.5151 8.09026 20.6403 8.14911 20.7433 8.24001C20.8464 8.33091 20.923 8.45021 20.9647 8.58442C21.0063 8.71863 21.0112 8.86238 20.9789 8.99938C20.9466 9.13638 20.8783 9.26116 20.7818 9.35959L16.414 13.8154L17.445 20.1136C17.4677 20.2527 17.4529 20.3957 17.4021 20.5265C17.3514 20.6572 17.2667 20.7705 17.1577 20.8534C17.0488 20.9364 16.9198 20.9858 16.7855 20.996C16.6511 21.0062 16.5168 20.9768 16.3975 20.9111L11.0004 17.9421L5.60249 20.9139C5.48314 20.9792 5.34875 21.0083 5.21446 20.9979C5.08017 20.9876 4.95132 20.9381 4.84242 20.8551C4.73353 20.7721 4.64892 20.6589 4.59814 20.5282C4.54736 20.3975 4.53242 20.2545 4.55501 20.1154L5.586 13.8209L1.21818 9.36504C1.12166 9.26661 1.05338 9.14183 1.02107 9.00483C0.988752 8.86783 0.993694 8.72409 1.03533 8.58988C1.07697 8.45567 1.15365 8.33636 1.25667 8.24547C1.35969 8.15457 1.48495 8.09572 1.61825 8.07558L7.65319 7.15076L10.3522 1.42182C10.4119 1.29526 10.5041 1.18871 10.6186 1.11417C10.733 1.03964 10.865 1.00009 10.9997 1C11.1345 0.999906 11.2665 1.03927 11.3811 1.11364C11.4956 1.18801 11.588 1.29444 11.6478 1.42091Z" fill="#F2B439" stroke="#F2B439" stroke-width="2" stroke-linejoin="round"/>
</svg>
