<svg width="73" height="30" viewBox="0 0 73 30" fill="none" xmlns="http://www.w3.org/2000/svg">
<g id="MainIcon1">
<path id="Rectangle 55 (Stroke)" d="M34 23H27.6562C25.637 23 24 21.2875 24 19.175V9.825C24 7.71251 25.637 6 27.6562 6H46.3438C48.363 6 50 7.71251 50 9.825V19.175C50 21.2875 48.363 23 46.3438 23H42" stroke="#383836" stroke-width="2" stroke-linecap="round"/>
<path id="Vector (Stroke)" d="M44.5333 27.8582L40.0096 20.0229C39.9781 19.9684 39.9726 19.9026 39.9948 19.8436C40.0169 19.7847 40.0642 19.7387 40.1238 19.7183L42.0451 19.1944C42.0516 19.1922 42.0581 19.1903 42.0648 19.1887C42.1899 19.1591 42.3029 19.092 42.3888 18.9963C42.4747 18.9006 42.5292 18.7809 42.5451 18.6533C42.561 18.5257 42.5375 18.3963 42.4778 18.2825C42.418 18.1686 42.3249 18.0758 42.2109 18.0164C42.207 18.0144 42.2033 18.0123 42.1996 18.0101L34.0412 13.1009L34.2167 22.608C34.2168 22.6123 34.2168 22.6166 34.2166 22.6209C34.2111 22.7493 34.245 22.8764 34.3138 22.985C34.3825 23.0936 34.4829 23.1786 34.6013 23.2285C34.7198 23.2785 34.8507 23.2911 34.9764 23.2645C35.1022 23.238 35.2169 23.1736 35.305 23.08C35.3098 23.0749 35.3149 23.07 35.3203 23.0654L36.9071 21.648C36.9545 21.6068 37.0179 21.5889 37.0799 21.5993C37.1419 21.6097 37.196 21.6473 37.2275 21.7017L40.435 27.2574" stroke="#383836" stroke-width="2" stroke-linecap="round" stroke-linejoin="round"/>
<path id="Ellipse 7" d="M36.7381 13.8287C37.0109 13.1639 37.0725 12.4312 36.9144 11.7302C36.7564 11.0292 36.3864 10.3938 35.8547 9.9104C35.323 9.42697 34.6554 9.11892 33.9426 9.02809C33.2297 8.93726 32.5062 9.06805 31.8703 9.40269C31.2343 9.73733 30.7168 10.2596 30.388 10.8986C30.0592 11.5375 29.9351 12.2622 30.0324 12.9742C30.1298 13.6862 30.4439 14.351 30.9322 14.8782C31.4205 15.4054 32.0592 15.7696 32.7616 15.9212" stroke="#383836" stroke-width="2" stroke-linecap="round"/>
</g>
</svg>
