<svg width="15" height="15" viewBox="0 0 15 15" fill="none" xmlns="http://www.w3.org/2000/svg">
<g clip-path="url(#clip0_87_22)">
<mask id="path-1-inside-1_87_22" fill="white">
<path d="M7.89844 2.50001C8.13844 2.50001 8.35844 2.48701 8.56044 2.46051L8.49894 2.53201C8.31394 2.51051 8.11394 2.50001 7.89844 2.50001Z"/>
</mask>
<path d="M8.56044 2.46051L9.09113 2.91698L8.46939 1.76646L8.56044 2.46051ZM8.49894 2.53201L8.41813 3.22733L9.02963 2.98848L8.49894 2.53201ZM7.89844 3.20001C8.16325 3.20001 8.41419 3.18569 8.65149 3.15456L8.46939 1.76646C8.30269 1.78833 8.11362 1.80001 7.89844 1.80001V3.20001ZM8.02975 2.00404L7.96825 2.07554L9.02963 2.98848L9.09113 2.91698L8.02975 2.00404ZM8.57974 1.83669C8.36364 1.81158 8.13626 1.80001 7.89844 1.80001V3.20001C8.09161 3.20001 8.26423 3.20944 8.41813 3.22733L8.57974 1.83669Z" fill="#1F1F1D" mask="url(#path-1-inside-1_87_22)"/>
<path d="M6.912 2.15V2.5V2.85C7.20884 2.85 7.47955 2.86465 7.7258 2.89391L4.28691 6.88997C4.61932 5.3087 4.43783 3.82528 3.95451 2.61752C3.57837 1.67762 3.0079 0.882802 2.33854 0.35H9.91186C9.91141 0.351837 9.91096 0.353671 9.91051 0.355505L8.56577 1.91775C8.13988 2.07152 7.59675 2.15 6.912 2.15Z" stroke="#1F1F1D" stroke-width="0.7" stroke-linejoin="bevel"/>
<mask id="path-4-inside-2_87_22" fill="white">
<path d="M10.4067 0.3155L10.3892 0.3355C10.3957 0.228 10.3987 0.1165 10.3987 0C10.3987 0.109 10.4012 0.2145 10.4067 0.3155Z"/>
</mask>
<path d="M10.4067 0.3155L10.9335 0.776458L11.1056 0.277438L10.4067 0.3155ZM10.3892 0.3355L9.69044 0.293252L10.916 0.796458L10.3892 0.3355ZM9.87986 -0.145458L9.86236 -0.125458L10.916 0.796458L10.9335 0.776458L9.87986 -0.145458ZM11.0879 0.377748C11.0954 0.254173 11.0987 0.128425 11.0987 0H9.69866C9.69866 0.104575 9.69596 0.201827 9.69044 0.293252L11.0879 0.377748ZM9.69866 0C9.69866 0.119492 9.7014 0.237863 9.7077 0.353562L11.1056 0.277438C11.1009 0.191137 11.0987 0.0985078 11.0987 0H9.69866Z" fill="#1F1F1D" mask="url(#path-4-inside-2_87_22)"/>
<mask id="path-6-inside-3_87_22" fill="white">
<path d="M10.6779 0L10.4974 0.21C10.4839 0.142 10.4724 0.072 10.4624 0H10.6779Z"/>
</mask>
<path d="M10.6779 0L11.2088 0.456282L10.6779 -0.7V0ZM10.4974 0.21L9.8108 0.34631L11.0283 0.666282L10.4974 0.21ZM10.4624 0V-0.7L9.76906 0.0962979L10.4624 0ZM10.147 -0.456282L9.96655 -0.246282L11.0283 0.666282L11.2088 0.456282L10.147 -0.456282ZM11.184 0.0736897C11.1736 0.0210874 11.1642 -0.035361 11.1557 -0.0962979L9.76906 0.0962979C9.78059 0.179361 9.79425 0.262913 9.8108 0.34631L11.184 0.0736897ZM10.4624 0.7H10.6779V-0.7H10.4624V0.7Z" fill="#1F1F1D" mask="url(#path-6-inside-3_87_22)"/>
<path d="M14.65 14.65V13.7993C13.594 14.0508 11.8785 14.1521 10.2609 13.7832C8.36477 13.3507 6.49875 12.2409 6.0764 9.86123L14.65 14.65ZM14.65 14.65H0.762979L5.98315 8.5843M14.65 14.65L5.98315 8.5843M5.98315 8.5843C5.97125 9.00839 6.00077 9.43559 6.07638 9.86115L5.98315 8.5843Z" stroke="#1F1F1D" stroke-width="0.7" stroke-linejoin="bevel"/>
<path d="M-0.881434 14.5425L8.86839 3.21386C8.95243 3.25757 9.03073 3.30522 9.10368 3.35682L-0.67545 14.7199L-0.881434 14.5425Z" stroke="#1F1F1D" stroke-width="0.7" stroke-linejoin="bevel"/>
<path d="M12.0839 -0.522377L12.2898 -0.345056L11.1297 1.00294C11.0839 0.918711 11.0422 0.828452 11.0045 0.731733L12.0839 -0.522377Z" stroke="#1F1F1D" stroke-width="0.7" stroke-linejoin="bevel"/>
<path d="M10.3983 1.72009C10.3237 1.58384 10.2626 1.43701 10.2136 1.28036C10.0269 1.79172 9.69136 2.12722 9.18044 2.3145M10.3983 1.72009C10.2156 2.05392 9.95753 2.31434 9.6183 2.49995M10.3983 1.72009C10.462 1.83647 10.5355 1.94512 10.6199 2.0456C10.7776 2.23339 10.9644 2.38312 11.1779 2.5M10.3983 1.72009C10.472 1.5854 10.5334 1.43876 10.583 1.28026L11.1779 2.5M9.6183 2.49995C9.48294 2.42586 9.33696 2.36507 9.18108 2.31625L9.18044 2.3145M9.6183 2.49995C9.51947 2.55402 9.41374 2.60175 9.30098 2.64309C9.30095 2.6431 9.30092 2.64311 9.30089 2.64312L9.18108 2.31624M9.6183 2.49995C9.77961 2.58825 9.92583 2.69544 10.0557 2.82381M9.18044 2.3145L9.18108 2.31624M9.18044 2.3145C9.17968 2.31478 9.17892 2.31506 9.17817 2.31533C9.17914 2.31564 9.18011 2.31594 9.18108 2.31624M9.18108 2.31624L9.17844 2.68474C9.43062 2.77674 9.63995 2.90491 9.80994 3.073M10.0557 2.82381C10.0556 2.82372 10.0555 2.82362 10.0554 2.82353L9.80994 3.073M10.0557 2.82381C10.0558 2.82392 10.0559 2.82402 10.056 2.82412L9.80994 3.073M10.0557 2.82381C10.1924 2.95834 10.3057 3.11067 10.3983 3.2797M9.80994 3.073C9.98519 3.24546 10.1186 3.45981 10.2136 3.7196C10.2627 3.56255 10.3238 3.41573 10.3983 3.2797M10.3983 3.2797C10.4887 3.11456 10.5988 2.96532 10.7312 2.83297C10.8635 2.70061 11.0128 2.59044 11.1779 2.5M10.3983 3.2797C10.4728 3.4157 10.534 3.56251 10.5831 3.71956C10.7703 3.20766 11.106 2.87192 11.618 2.68468C11.4608 2.63555 11.3139 2.57444 11.1779 2.5" stroke="#1F1F1D" stroke-width="0.7" stroke-linejoin="bevel"/>
</g>
<defs>
<clipPath id="clip0_87_22">
<rect width="15" height="15" fill="white"/>
</clipPath>
</defs>
</svg>
