<svg width="36" height="36" viewBox="0 0 36 36" fill="none" xmlns="http://www.w3.org/2000/svg">
<g id="logos2-02 1" clip-path="url(#clip0_1_283)">
<path id="Vector" d="M18.9563 5.99995C19.5323 5.99995 20.0603 5.96875 20.5451 5.90515L20.3975 6.07675C19.9535 6.02515 19.4735 5.99995 18.9563 5.99995Z" fill="url(#paint0_linear_1_283)"/>
<path id="Vector_2" d="M1.80005 0H24.8028C24.7392 0.4452 24.6552 0.8616 24.5496 1.2528L21.0552 5.3124C19.872 5.7816 18.3937 6 16.5888 6C17.9508 6 19.128 6.1236 20.1312 6.3864L8.21405 20.2344C12.6672 10.1172 7.22405 0.7224 1.80005 0Z" fill="url(#paint1_linear_1_283)"/>
<path id="Vector_3" d="M24.9756 0.7572L24.9336 0.8052C24.9492 0.5472 24.9564 0.2796 24.9564 0C24.9564 0.2616 24.9624 0.5148 24.9756 0.7572Z" fill="url(#paint2_linear_1_283)"/>
<path id="Vector_4" d="M25.6273 0L25.1941 0.504C25.1617 0.3408 25.1341 0.1728 25.1101 0H25.6273Z" fill="url(#paint3_linear_1_283)"/>
<g id="Group">
<path id="Vector_5" d="M0 36.0001H36V32.0005C31.7604 33.5209 17.2704 34.0009 15.4104 23.5201C15.0816 21.6697 15.1368 19.7989 15.5064 17.9821L0 36.0001Z" fill="#D02815"/>
<path id="Vector_6" d="M0 36.0001H36V32.0005C31.7604 33.5209 17.2704 34.0009 15.4104 23.5201C15.0816 21.6697 15.1368 19.7989 15.5064 17.9821L0 36.0001Z" fill="url(#paint4_linear_1_283)"/>
<path id="Vector_7" d="M0 36.0001H36V32.0005C31.7604 33.5209 17.2704 34.0009 15.4104 23.5201C15.0816 21.6697 15.1368 19.7989 15.5064 17.9821L0 36.0001Z" fill="url(#paint5_linear_1_283)"/>
</g>
<path id="Vector_8" d="M21.0576 6.68884C21.8436 6.99964 22.5 7.42204 23.0352 7.96564L-1.53245 36.5124L-3.30005 34.9908L21.0576 6.68884Z" fill="url(#paint6_linear_1_283)"/>
<path id="Vector_9" d="M26.1312 4.36916L23.544 7.37516C23.0076 6.84476 22.308 6.47996 21.426 6.26036L22.0332 5.55476C23.454 5.03396 24.3096 4.03556 24.6996 2.45636L25.1112 1.97876C25.2888 2.97236 25.6212 3.76196 26.1312 4.36916Z" fill="url(#paint7_linear_1_283)"/>
<path id="Vector_10" d="M30.6804 -0.916754L26.64 3.77765C26.1216 3.17765 25.7316 2.44685 25.458 1.57565L28.9128 -2.43835L30.6804 -0.916754Z" fill="url(#paint8_linear_1_283)"/>
<path id="Vector_11" d="M30.9563 6C26.6699 6 24.9563 7.7148 24.9563 12C24.9563 9.8436 24.5219 8.3376 23.5439 7.3752C23.0075 6.8448 22.3079 6.48 21.4259 6.2604C21.1067 6.18 20.7647 6.1188 20.3975 6.0768C19.9535 6.0252 19.4735 6 18.9563 6C19.5323 6 20.0603 5.9688 20.5451 5.9052C21.0983 5.832 21.5927 5.7168 22.0331 5.5548C23.4539 5.034 24.3095 4.0356 24.6995 2.4564C24.8219 1.9632 24.8987 1.4148 24.9335 0.8052C24.9491 0.5472 24.9563 0.2796 24.9563 0C24.9563 0.2616 24.9623 0.5148 24.9755 0.7572C24.9995 1.1952 25.0439 1.602 25.1111 1.9788C25.2887 2.9724 25.6211 3.762 26.1311 4.3692C27.0815 5.5008 28.6439 6 30.9563 6Z" fill="white"/>
<path id="Vector_12" d="M30.9563 6C26.6699 6 24.9563 7.7148 24.9563 12C24.9563 9.8436 24.5219 8.3376 23.5439 7.3752C23.0075 6.8448 22.3079 6.48 21.4259 6.2604C21.1067 6.18 20.7647 6.1188 20.3975 6.0768C19.9535 6.0252 19.4735 6 18.9563 6C19.5323 6 20.0603 5.9688 20.5451 5.9052C21.0983 5.832 21.5927 5.7168 22.0331 5.5548C23.4539 5.034 24.3095 4.0356 24.6995 2.4564C24.8219 1.9632 24.8987 1.4148 24.9335 0.8052C24.9491 0.5472 24.9563 0.2796 24.9563 0C24.9563 0.2616 24.9623 0.5148 24.9755 0.7572C24.9995 1.1952 25.0439 1.602 25.1111 1.9788C25.2887 2.9724 25.6211 3.762 26.1311 4.3692C27.0815 5.5008 28.6439 6 30.9563 6Z" fill="url(#paint9_linear_1_283)"/>
</g>
<defs>
<linearGradient id="paint0_linear_1_283" x1="20.1827" y1="6.32515" x2="19.3175" y2="5.57995" gradientUnits="userSpaceOnUse">
<stop stop-color="#F18479" stop-opacity="0.83"/>
<stop offset="0.03" stop-color="#EE695A" stop-opacity="0.89"/>
<stop offset="0.06" stop-color="#EB5343" stop-opacity="0.94"/>
<stop offset="0.1" stop-color="#EA4433" stop-opacity="0.97"/>
<stop offset="0.15" stop-color="#E93C29" stop-opacity="0.99"/>
<stop offset="0.3" stop-color="#E93A27"/>
</linearGradient>
<linearGradient id="paint1_linear_1_283" x1="16.7448" y1="10.3212" x2="3.05645" y2="-1.4604" gradientUnits="userSpaceOnUse">
<stop stop-color="#F18479" stop-opacity="0.83"/>
<stop offset="0.03" stop-color="#EE695A" stop-opacity="0.89"/>
<stop offset="0.06" stop-color="#EB5343" stop-opacity="0.94"/>
<stop offset="0.1" stop-color="#EA4433" stop-opacity="0.97"/>
<stop offset="0.15" stop-color="#E93C29" stop-opacity="0.99"/>
<stop offset="0.3" stop-color="#E93A27"/>
</linearGradient>
<linearGradient id="paint2_linear_1_283" x1="25.1376" y1="0.5688" x2="24.7524" y2="0.236393" gradientUnits="userSpaceOnUse">
<stop stop-color="#F18479" stop-opacity="0.83"/>
<stop offset="0.03" stop-color="#EE695A" stop-opacity="0.89"/>
<stop offset="0.06" stop-color="#EB5343" stop-opacity="0.94"/>
<stop offset="0.1" stop-color="#EA4433" stop-opacity="0.97"/>
<stop offset="0.15" stop-color="#E93C29" stop-opacity="0.99"/>
<stop offset="0.3" stop-color="#E93A27"/>
</linearGradient>
<linearGradient id="paint3_linear_1_283" x1="25.4101" y1="0.252" x2="25.1125" y2="-0.00359988" gradientUnits="userSpaceOnUse">
<stop stop-color="#F18479" stop-opacity="0.83"/>
<stop offset="0.03" stop-color="#EE695A" stop-opacity="0.89"/>
<stop offset="0.06" stop-color="#EB5343" stop-opacity="0.94"/>
<stop offset="0.1" stop-color="#EA4433" stop-opacity="0.97"/>
<stop offset="0.15" stop-color="#E93C29" stop-opacity="0.99"/>
<stop offset="0.3" stop-color="#E93A27"/>
</linearGradient>
<linearGradient id="paint4_linear_1_283" x1="19.6704" y1="35.4373" x2="8.1636" y2="25.5349" gradientUnits="userSpaceOnUse">
<stop offset="0.72" stop-color="white" stop-opacity="0"/>
<stop offset="0.76" stop-color="white" stop-opacity="0.01"/>
<stop offset="0.8" stop-color="white" stop-opacity="0.06"/>
<stop offset="0.84" stop-color="white" stop-opacity="0.13"/>
<stop offset="0.88" stop-color="white" stop-opacity="0.24"/>
<stop offset="0.91" stop-color="white" stop-opacity="0.37"/>
<stop offset="0.95" stop-color="white" stop-opacity="0.53"/>
<stop offset="0.99" stop-color="white" stop-opacity="0.72"/>
<stop offset="1" stop-color="white" stop-opacity="0.8"/>
</linearGradient>
<linearGradient id="paint5_linear_1_283" x1="16.0812" y1="29.4613" x2="35.2836" y2="35.1565" gradientUnits="userSpaceOnUse">
<stop stop-opacity="0"/>
<stop offset="1" stop-opacity="0.8"/>
</linearGradient>
<linearGradient id="paint6_linear_1_283" x1="10.7568" y1="22.2324" x2="8.98915" y2="20.7108" gradientUnits="userSpaceOnUse">
<stop stop-color="#E27B70"/>
<stop offset="0.07" stop-color="#DD6457"/>
<stop offset="0.18" stop-color="#D74A3A"/>
<stop offset="0.29" stop-color="#D33725"/>
<stop offset="0.39" stop-color="#D02B19"/>
<stop offset="0.49" stop-color="#D02815"/>
<stop offset="0.59" stop-color="#D12B19"/>
<stop offset="0.69" stop-color="#D53725"/>
<stop offset="0.8" stop-color="#DC4A3A"/>
<stop offset="0.9" stop-color="#E66557"/>
<stop offset="0.99" stop-color="#F18377"/>
</linearGradient>
<linearGradient id="paint7_linear_1_283" x1="25.0356" y1="5.64116" x2="23.268" y2="4.11956" gradientUnits="userSpaceOnUse">
<stop stop-color="#E27B70"/>
<stop offset="0.07" stop-color="#DD6457"/>
<stop offset="0.18" stop-color="#D74A3A"/>
<stop offset="0.29" stop-color="#D33725"/>
<stop offset="0.39" stop-color="#D02B19"/>
<stop offset="0.49" stop-color="#D02815"/>
<stop offset="0.59" stop-color="#D12B19"/>
<stop offset="0.69" stop-color="#D53725"/>
<stop offset="0.8" stop-color="#DC4A3A"/>
<stop offset="0.9" stop-color="#E66557"/>
<stop offset="0.99" stop-color="#F18377"/>
</linearGradient>
<linearGradient id="paint8_linear_1_283" x1="28.6596" y1="1.43045" x2="26.892" y2="-0.091155" gradientUnits="userSpaceOnUse">
<stop stop-color="#E27B70"/>
<stop offset="0.07" stop-color="#DD6457"/>
<stop offset="0.18" stop-color="#D74A3A"/>
<stop offset="0.29" stop-color="#D33725"/>
<stop offset="0.39" stop-color="#D02B19"/>
<stop offset="0.49" stop-color="#D02815"/>
<stop offset="0.59" stop-color="#D12B19"/>
<stop offset="0.69" stop-color="#D53725"/>
<stop offset="0.8" stop-color="#DC4A3A"/>
<stop offset="0.9" stop-color="#E66557"/>
<stop offset="0.99" stop-color="#F18377"/>
</linearGradient>
<linearGradient id="paint9_linear_1_283" x1="28.4027" y1="8.9664" x2="22.8371" y2="4.176" gradientUnits="userSpaceOnUse">
<stop offset="0.39" stop-color="#F2B439"/>
<stop offset="0.52" stop-color="#F2B53D"/>
<stop offset="0.66" stop-color="#F3BA49"/>
<stop offset="0.8" stop-color="#F4C25E"/>
<stop offset="0.93" stop-color="#F6CC78"/>
</linearGradient>
<clipPath id="clip0_1_283">
<rect width="36" height="36" fill="white"/>
</clipPath>
</defs>
</svg>
