<svg width="34" height="34" viewBox="0 0 34 34" fill="none" xmlns="http://www.w3.org/2000/svg">
<path id="Vector" d="M20.0409 22.2664C23.216 20.4332 27.4747 20.3242 33.2916 21.8829L33.421 21.3999L33.5505 20.9169C27.7335 19.3583 24.0999 17.1346 22.2667 13.9594C20.4335 10.7843 20.3246 6.52557 21.8832 0.708655L21.4002 0.579245L20.9173 0.449836C19.3586 6.26675 17.1349 9.90043 13.9598 11.7336C10.7846 13.5668 6.52589 13.6757 0.708978 12.1171L0.579568 12.6001L0.450159 13.083C6.26707 14.6417 9.90075 16.8654 11.7339 20.0405C13.5671 23.2157 13.6761 27.4744 12.1174 33.2913L12.6004 33.4207L13.0833 33.5501C14.642 27.7332 16.8657 24.0995 20.0409 22.2664Z" fill="#F2B439" stroke="white"/>
</svg>
