<svg width="73" height="30" viewBox="0 0 73 30" fill="none" xmlns="http://www.w3.org/2000/svg">
<g id="MainIcon4">
<path id="Vector (Stroke) (Stroke)" fill-rule="evenodd" clip-rule="evenodd" d="M46.095 5.00747C45.7677 4.95564 45.4604 5.17894 45.4086 5.50623L44.8618 8.95837C44.8505 9.02988 44.8014 9.08969 44.7334 9.11474C44.6655 9.13978 44.5893 9.12615 44.5343 9.07909L42.5247 7.36087L42.5236 7.35999C40.947 6.0166 38.9095 5.27653 36.8018 5.27447C34.5306 5.27447 32.346 6.13131 30.7311 7.66546C29.1151 9.20061 28.2012 11.2895 28.2012 13.4745C28.2012 13.8058 28.4698 14.0745 28.8012 14.0745C29.1325 14.0745 29.4012 13.8058 29.4012 13.4745C29.4012 11.6282 30.1729 9.85087 31.5576 8.53545C32.9432 7.21915 34.8287 6.47456 36.8008 6.47447C38.6302 6.47633 40.3902 7.11905 41.7446 8.27275L41.7456 8.27361L43.2008 9.51779C43.2689 9.57597 43.2899 9.67228 43.2524 9.75358C43.2149 9.83487 43.128 9.88134 43.0395 9.86734L40.0563 9.39484C39.729 9.343 39.4217 9.5663 39.3699 9.89359C39.318 10.2209 39.5413 10.5282 39.8686 10.5801L45.0816 11.4057C45.2388 11.4306 45.3994 11.3921 45.5282 11.2985C45.6569 11.205 45.7432 11.0641 45.7681 10.907L46.5938 5.69395C46.6456 5.36666 46.4223 5.05931 46.095 5.00747Z" fill="#383836" stroke="#383836" stroke-linecap="round" stroke-linejoin="round"/>
<path id="Vector (Stroke) (Stroke)_2" fill-rule="evenodd" clip-rule="evenodd" d="M28.5065 24.067C28.8338 24.1188 29.1412 23.8955 29.193 23.5682L29.7398 20.1161C29.7511 20.0446 29.8002 19.9848 29.8681 19.9597C29.9361 19.9347 30.0122 19.9483 30.0673 19.9954L32.0769 21.7136L32.0779 21.7145C33.6546 23.0579 35.692 23.7979 37.7997 23.8C40.0709 23.8 42.2556 22.9432 43.8705 21.409C45.4864 19.8739 46.4004 17.785 46.4004 15.6C46.4004 15.2686 46.1318 15 45.8004 15C45.469 15 45.2004 15.2686 45.2004 15.6C45.2004 17.4463 44.4286 19.2236 43.044 20.539C41.6584 21.8553 39.7729 22.5999 37.8008 22.6C35.9714 22.5981 34.2113 21.9554 32.8569 20.8017L32.8559 20.8008L31.4008 19.5567C31.3327 19.4985 31.3116 19.4022 31.3491 19.3209C31.3866 19.2396 31.4736 19.1931 31.562 19.2071L34.5452 19.6796C34.8725 19.7315 35.1799 19.5082 35.2317 19.1809C35.2835 18.8536 35.0602 18.5462 34.7329 18.4944L29.5199 17.6687C29.3627 17.6438 29.2021 17.6824 29.0734 17.7759C28.9446 17.8695 28.8583 18.0103 28.8334 18.1675L28.0078 23.3805C27.9559 23.7078 28.1792 24.0151 28.5065 24.067Z" fill="#383836" stroke="#383836" stroke-linecap="round" stroke-linejoin="round"/>
</g>
</svg>
