<svg width="73" height="30" viewBox="0 0 73 30" fill="none" xmlns="http://www.w3.org/2000/svg">
<g id="MainIcon1">
<path id="home" d="M32.1964 4.05469L32.4392 3.32298L32.1964 4.05469ZM32.1964 4.05469L32.1952 4.05828L32.1964 4.05469ZM46.0898 9.06834L41.9336 23.2689C41.9335 23.2692 41.9334 23.2696 41.9333 23.2699C41.9223 23.3066 41.901 23.3522 41.8039 23.4101C41.6667 23.4919 41.5486 23.5205 41.4379 23.5205H29.4736C28.9885 23.5205 28.6777 23.4445 28.4948 23.3528C28.4426 23.3266 28.3999 23.2991 28.3646 23.269H39.2065C40.1295 23.269 41.0193 23.1015 41.5911 22.5245C41.8581 22.255 42.0722 21.8819 42.2542 21.4761C42.4418 21.0578 42.6215 20.5444 42.7959 19.9458L42.7959 19.9457L46.0324 8.83191C46.0365 8.85319 46.0407 8.87276 46.0446 8.89042C46.0587 8.9539 46.0766 9.02051 46.0898 9.06834ZM24.9494 21.6464L25.1369 21.7105L24.9497 21.6465L24.9494 21.6464ZM25.8968 16.3051C25.3319 18.0036 24.7684 19.6975 24.1915 21.3845C23.9206 22.1559 23.9436 22.9578 24.2194 23.7575L24.2196 23.7581C24.5353 24.6713 25.0978 25.4374 25.884 26.0483C26.6696 26.6588 27.5367 27 28.4706 27H41.4239C42.2391 27 42.9865 26.7118 43.649 26.1913C44.313 25.6697 44.7727 25.0068 44.9997 24.2141C44.9998 24.2137 45 24.2133 45.0001 24.2128L45.0003 24.2121L45.0004 24.2117L48.8579 11.0138C48.858 11.0134 48.8581 11.013 48.8582 11.0126C49.1235 10.11 49.0221 9.23395 48.5026 8.46278C48.4962 8.45321 48.4895 8.44375 48.4828 8.43441C48.3232 8.21438 48.095 8.03632 47.9606 7.93691C47.7999 7.81814 47.6317 7.71078 47.5039 7.63625C47.1986 7.45811 46.8219 7.45442 46.5131 7.62654C46.4546 7.65913 46.4003 7.6971 46.3505 7.73964L46.6409 6.74233L46.6422 6.73774C46.9036 5.82398 46.8083 4.93832 46.279 4.16878L45.4708 4.72465L46.279 4.16878C45.7457 3.39343 44.9545 3 44.0061 3H33.3263C33.1986 3 33.0871 3.02328 33.0412 3.03303C32.9779 3.04648 32.9088 3.06413 32.838 3.08336L32.838 3.08336C32.8047 3.09242 32.7691 3.10229 32.7347 3.11185L32.7329 3.11236C32.6946 3.123 32.6556 3.13384 32.6155 3.14475C32.6027 3.14046 32.5892 3.1359 32.575 3.13103L32.5734 3.1305C32.5544 3.12404 32.5321 3.11643 32.5102 3.10917L32.5051 3.10748C32.4034 3.07372 32.1844 3.00097 31.9362 3.00758C31.5892 3.01682 31.267 3.12605 30.9863 3.32039C30.7777 3.46483 30.5879 3.6344 30.4335 3.83483C30.2938 4.01613 30.1739 4.22619 30.0686 4.45072C29.9729 4.65478 29.8897 4.84868 29.8203 5.03162C28.4099 8.74973 27.1512 12.5338 25.9001 16.2953L25.8968 16.3051ZM47.9952 8.44793C47.9953 8.44791 47.9955 8.44913 47.9959 8.4515C47.9954 8.44911 47.9952 8.44795 47.9952 8.44793ZM40.811 8.65307C40.8116 8.65078 40.8123 8.64851 40.8131 8.64625L40.811 8.65307ZM33.5925 8.28846C33.5919 8.29074 33.5912 8.29301 33.5905 8.29527L33.5925 8.28846ZM36.1348 12.3841C36.1355 12.3818 36.1362 12.3795 36.1369 12.3772L36.1348 12.3841ZM32.4277 12.0195C32.4271 12.0217 32.4264 12.024 32.4257 12.0263L32.4277 12.0195ZM32.2539 4.07412L32.2527 4.07768L32.2539 4.07412Z" stroke="#383836" stroke-width="2" stroke-linejoin="round"/>
</g>
</svg>
