<svg width="73" height="30" viewBox="0 0 73 30" fill="none" xmlns="http://www.w3.org/2000/svg">
<g id="MainIcon2">
<g clip-path="url(#clip0_1_55)">
<path id="Vector" d="M46.5234 4.56597C46.4124 5.42629 46.4223 6.26121 46.5659 7.07376C46.788 8.32983 47.3149 9.46951 48.1193 10.5232C47.0308 10.3828 45.9855 10.4365 44.976 10.7071C43.9667 10.9776 43.0348 11.4537 42.1626 12.1195C42.3051 11.0128 42.2468 9.95083 41.9635 8.92618C41.6919 7.93523 41.2199 7.01902 40.5651 6.16176C42.7986 6.44995 44.7616 5.91032 46.5234 4.56597Z" stroke="#383836" stroke-width="2" stroke-linejoin="bevel"/>
<path id="Vector_2" d="M28 10C28 12.21 32.03 14 37 14C38.1767 14 39.3008 13.8997 40.3311 13.7171M28 10C28 7.79 32.03 6 37 6C38.0519 6 39.0616 6.08018 40 6.22755M28 10V20C28 22.21 32.03 24 37 24C41.97 24 46 22.21 46 20V15M46 15C46 17.21 41.97 19 37 19C32.03 19 28 17.21 28 15M46 15V11" stroke="#383836" stroke-width="2" stroke-linecap="round" stroke-linejoin="round"/>
</g>
</g>
<defs>
<clipPath id="clip0_1_55">
<rect width="73" height="30" rx="15" fill="white"/>
</clipPath>
</defs>
</svg>
