<svg width="73" height="30" viewBox="0 0 73 30" fill="none" xmlns="http://www.w3.org/2000/svg">
<g id="MainIcon1">
<path id="Star" d="M39.7816 12.3246C39.8444 12.6532 40.0674 12.9287 40.3758 13.0585L45.4539 15.1963L40.5888 18.2483C40.3227 18.4152 40.1505 18.6975 40.1239 19.0105L39.628 24.8291L35.6508 21.0856C35.3973 20.8469 35.0378 20.7574 34.7018 20.8492L29.4316 22.2894L31.7248 16.9221C31.8482 16.6332 31.8287 16.303 31.6721 16.0307L28.8091 11.0515L34.2985 11.5441C34.6315 11.574 34.9574 11.4355 35.167 11.175L38.7183 6.76104L39.7816 12.3246ZM45.8273 14.962L45.8272 14.9621L45.8273 14.962ZM28.9281 22.7682V22.7682ZM38.8997 6.03357L38.9108 6.06482L38.8997 6.03357Z" stroke="#383836" stroke-width="2" stroke-linejoin="round"/>
</g>
</svg>
