<svg width="36" height="36" viewBox="0 0 36 36" fill="none" xmlns="http://www.w3.org/2000/svg">
<g id="logos2-02 1" clip-path="url(#clip0_1_6)">
<path id="Vector" d="M18.9564 6.00001C19.5324 6.00001 20.0604 5.96881 20.5452 5.90521L20.3976 6.07681C19.9536 6.02521 19.4736 6.00001 18.9564 6.00001Z" fill="url(#paint0_linear_1_6)"/>
<path id="Vector_2" d="M1.8 0H24.8028C24.7392 0.4452 24.6552 0.8616 24.5496 1.2528L21.0552 5.3124C19.872 5.7816 18.3936 6 16.5888 6C17.9508 6 19.128 6.1236 20.1312 6.3864L8.214 20.2344C12.6672 10.1172 7.224 0.7224 1.8 0Z" fill="url(#paint1_linear_1_6)"/>
<path id="Vector_3" d="M24.9756 0.7572L24.9336 0.8052C24.9492 0.5472 24.9564 0.2796 24.9564 0C24.9564 0.2616 24.9624 0.5148 24.9756 0.7572Z" fill="url(#paint2_linear_1_6)"/>
<path id="Vector_4" d="M25.6272 0L25.194 0.504C25.1616 0.3408 25.134 0.1728 25.11 0H25.6272Z" fill="url(#paint3_linear_1_6)"/>
<g id="Group">
<path id="Vector_5" d="M0 36H36V32.0004C31.7604 33.5208 17.2704 34.0008 15.4104 23.52C15.0816 21.6696 15.1368 19.7988 15.5064 17.982L0 36Z" fill="#D02815"/>
<path id="Vector_6" d="M0 36H36V32.0004C31.7604 33.5208 17.2704 34.0008 15.4104 23.52C15.0816 21.6696 15.1368 19.7988 15.5064 17.982L0 36Z" fill="url(#paint4_linear_1_6)"/>
<path id="Vector_7" d="M0 36H36V32.0004C31.7604 33.5208 17.2704 34.0008 15.4104 23.52C15.0816 21.6696 15.1368 19.7988 15.5064 17.982L0 36Z" fill="url(#paint5_linear_1_6)"/>
</g>
<path id="Vector_8" d="M21.0576 6.68878C21.8436 6.99958 22.5 7.42198 23.0352 7.96558L-1.5324 36.5124L-3.3 34.9908L21.0576 6.68878Z" fill="url(#paint6_linear_1_6)"/>
<path id="Vector_9" d="M26.1312 4.36922L23.544 7.37522C23.0076 6.84482 22.308 6.48002 21.426 6.26042L22.0332 5.55482C23.454 5.03402 24.3096 4.03562 24.6996 2.45642L25.1112 1.97882C25.2888 2.97242 25.6212 3.76202 26.1312 4.36922Z" fill="url(#paint7_linear_1_6)"/>
<path id="Vector_10" d="M30.6804 -0.916816L26.64 3.77758C26.1216 3.17758 25.7316 2.44678 25.458 1.57558L28.9128 -2.43842L30.6804 -0.916816Z" fill="url(#paint8_linear_1_6)"/>
<path id="Vector_11" d="M30.9564 6C26.67 6 24.9564 7.7148 24.9564 12C24.9564 9.8436 24.522 8.3376 23.544 7.3752C23.0076 6.8448 22.308 6.48 21.426 6.2604C21.1068 6.18 20.7648 6.1188 20.3976 6.0768C19.9536 6.0252 19.4736 6 18.9564 6C19.5324 6 20.0604 5.9688 20.5452 5.9052C21.0984 5.832 21.5928 5.7168 22.0332 5.5548C23.454 5.034 24.3096 4.0356 24.6996 2.4564C24.822 1.9632 24.8988 1.4148 24.9336 0.8052C24.9492 0.5472 24.9564 0.2796 24.9564 0C24.9564 0.2616 24.9624 0.5148 24.9756 0.7572C24.9996 1.1952 25.044 1.602 25.1112 1.9788C25.2888 2.9724 25.6212 3.762 26.1312 4.3692C27.0816 5.5008 28.644 6 30.9564 6Z" fill="white"/>
<path id="Vector_12" d="M30.9564 6C26.67 6 24.9564 7.7148 24.9564 12C24.9564 9.8436 24.522 8.3376 23.544 7.3752C23.0076 6.8448 22.308 6.48 21.426 6.2604C21.1068 6.18 20.7648 6.1188 20.3976 6.0768C19.9536 6.0252 19.4736 6 18.9564 6C19.5324 6 20.0604 5.9688 20.5452 5.9052C21.0984 5.832 21.5928 5.7168 22.0332 5.5548C23.454 5.034 24.3096 4.0356 24.6996 2.4564C24.822 1.9632 24.8988 1.4148 24.9336 0.8052C24.9492 0.5472 24.9564 0.2796 24.9564 0C24.9564 0.2616 24.9624 0.5148 24.9756 0.7572C24.9996 1.1952 25.044 1.602 25.1112 1.9788C25.2888 2.9724 25.6212 3.762 26.1312 4.3692C27.0816 5.5008 28.644 6 30.9564 6Z" fill="url(#paint9_linear_1_6)"/>
</g>
<defs>
<linearGradient id="paint0_linear_1_6" x1="20.1828" y1="6.32521" x2="19.3176" y2="5.58001" gradientUnits="userSpaceOnUse">
<stop stop-color="#F18479" stop-opacity="0.83"/>
<stop offset="0.03" stop-color="#EE695A" stop-opacity="0.89"/>
<stop offset="0.06" stop-color="#EB5343" stop-opacity="0.94"/>
<stop offset="0.1" stop-color="#EA4433" stop-opacity="0.97"/>
<stop offset="0.15" stop-color="#E93C29" stop-opacity="0.99"/>
<stop offset="0.3" stop-color="#E93A27"/>
</linearGradient>
<linearGradient id="paint1_linear_1_6" x1="16.7448" y1="10.3212" x2="3.0564" y2="-1.4604" gradientUnits="userSpaceOnUse">
<stop stop-color="#F18479" stop-opacity="0.83"/>
<stop offset="0.03" stop-color="#EE695A" stop-opacity="0.89"/>
<stop offset="0.06" stop-color="#EB5343" stop-opacity="0.94"/>
<stop offset="0.1" stop-color="#EA4433" stop-opacity="0.97"/>
<stop offset="0.15" stop-color="#E93C29" stop-opacity="0.99"/>
<stop offset="0.3" stop-color="#E93A27"/>
</linearGradient>
<linearGradient id="paint2_linear_1_6" x1="25.1376" y1="0.5688" x2="24.7524" y2="0.236393" gradientUnits="userSpaceOnUse">
<stop stop-color="#F18479" stop-opacity="0.83"/>
<stop offset="0.03" stop-color="#EE695A" stop-opacity="0.89"/>
<stop offset="0.06" stop-color="#EB5343" stop-opacity="0.94"/>
<stop offset="0.1" stop-color="#EA4433" stop-opacity="0.97"/>
<stop offset="0.15" stop-color="#E93C29" stop-opacity="0.99"/>
<stop offset="0.3" stop-color="#E93A27"/>
</linearGradient>
<linearGradient id="paint3_linear_1_6" x1="25.41" y1="0.252" x2="25.1124" y2="-0.00359988" gradientUnits="userSpaceOnUse">
<stop stop-color="#F18479" stop-opacity="0.83"/>
<stop offset="0.03" stop-color="#EE695A" stop-opacity="0.89"/>
<stop offset="0.06" stop-color="#EB5343" stop-opacity="0.94"/>
<stop offset="0.1" stop-color="#EA4433" stop-opacity="0.97"/>
<stop offset="0.15" stop-color="#E93C29" stop-opacity="0.99"/>
<stop offset="0.3" stop-color="#E93A27"/>
</linearGradient>
<linearGradient id="paint4_linear_1_6" x1="19.6704" y1="35.4372" x2="8.1636" y2="25.5348" gradientUnits="userSpaceOnUse">
<stop offset="0.72" stop-color="white" stop-opacity="0"/>
<stop offset="0.76" stop-color="white" stop-opacity="0.01"/>
<stop offset="0.8" stop-color="white" stop-opacity="0.06"/>
<stop offset="0.84" stop-color="white" stop-opacity="0.13"/>
<stop offset="0.88" stop-color="white" stop-opacity="0.24"/>
<stop offset="0.91" stop-color="white" stop-opacity="0.37"/>
<stop offset="0.95" stop-color="white" stop-opacity="0.53"/>
<stop offset="0.99" stop-color="white" stop-opacity="0.72"/>
<stop offset="1" stop-color="white" stop-opacity="0.8"/>
</linearGradient>
<linearGradient id="paint5_linear_1_6" x1="16.0812" y1="29.4612" x2="35.2836" y2="35.1564" gradientUnits="userSpaceOnUse">
<stop stop-opacity="0"/>
<stop offset="1" stop-opacity="0.8"/>
</linearGradient>
<linearGradient id="paint6_linear_1_6" x1="10.7568" y1="22.2324" x2="8.9892" y2="20.7108" gradientUnits="userSpaceOnUse">
<stop stop-color="#E27B70"/>
<stop offset="0.07" stop-color="#DD6457"/>
<stop offset="0.18" stop-color="#D74A3A"/>
<stop offset="0.29" stop-color="#D33725"/>
<stop offset="0.39" stop-color="#D02B19"/>
<stop offset="0.49" stop-color="#D02815"/>
<stop offset="0.59" stop-color="#D12B19"/>
<stop offset="0.69" stop-color="#D53725"/>
<stop offset="0.8" stop-color="#DC4A3A"/>
<stop offset="0.9" stop-color="#E66557"/>
<stop offset="0.99" stop-color="#F18377"/>
</linearGradient>
<linearGradient id="paint7_linear_1_6" x1="25.0356" y1="5.64122" x2="23.268" y2="4.11962" gradientUnits="userSpaceOnUse">
<stop stop-color="#E27B70"/>
<stop offset="0.07" stop-color="#DD6457"/>
<stop offset="0.18" stop-color="#D74A3A"/>
<stop offset="0.29" stop-color="#D33725"/>
<stop offset="0.39" stop-color="#D02B19"/>
<stop offset="0.49" stop-color="#D02815"/>
<stop offset="0.59" stop-color="#D12B19"/>
<stop offset="0.69" stop-color="#D53725"/>
<stop offset="0.8" stop-color="#DC4A3A"/>
<stop offset="0.9" stop-color="#E66557"/>
<stop offset="0.99" stop-color="#F18377"/>
</linearGradient>
<linearGradient id="paint8_linear_1_6" x1="28.6596" y1="1.43038" x2="26.892" y2="-0.091216" gradientUnits="userSpaceOnUse">
<stop stop-color="#E27B70"/>
<stop offset="0.07" stop-color="#DD6457"/>
<stop offset="0.18" stop-color="#D74A3A"/>
<stop offset="0.29" stop-color="#D33725"/>
<stop offset="0.39" stop-color="#D02B19"/>
<stop offset="0.49" stop-color="#D02815"/>
<stop offset="0.59" stop-color="#D12B19"/>
<stop offset="0.69" stop-color="#D53725"/>
<stop offset="0.8" stop-color="#DC4A3A"/>
<stop offset="0.9" stop-color="#E66557"/>
<stop offset="0.99" stop-color="#F18377"/>
</linearGradient>
<linearGradient id="paint9_linear_1_6" x1="28.4028" y1="8.9664" x2="22.8372" y2="4.176" gradientUnits="userSpaceOnUse">
<stop offset="0.39" stop-color="#F2B439"/>
<stop offset="0.52" stop-color="#F2B53D"/>
<stop offset="0.66" stop-color="#F3BA49"/>
<stop offset="0.8" stop-color="#F4C25E"/>
<stop offset="0.93" stop-color="#F6CC78"/>
</linearGradient>
<clipPath id="clip0_1_6">
<rect width="36" height="36" fill="white"/>
</clipPath>
</defs>
</svg>
